HIERARCHY
ROOT Hips
{
  OFFSET 263.056 91.6644 -274.608
  CHANNELS 6 Xposition Yposition Zposition Zrotation Xrotation Yrotation
  JOINT LeftUpLeg
  {
    OFFSET 8.64259 1.95398 -2.38835
    CHANNELS 3 Zrotation Xrotation Yrotation
    JOINT LeftLeg
    {
      OFFSET 43.7702 0 0
      CHANNELS 3 Zrotation Xrotation Yrotation
      JOINT LeftFoot
      {
        OFFSET 40.6238 0 0
        CHANNELS 3 Zrotation Xrotation Yrotation
        JOINT LeftToeBase
        {
          OFFSET 12.7242 0 0
          CHANNELS 3 Zrotation Xrotation Yrotation
          End Site
          {
            OFFSET 0 0 0
          }
        }
      }
    }
  }
  JOINT RightUpLeg
  {
    OFFSET -8.2249 1.95398 -2.59336
    CHANNELS 3 Zrotation Xrotation Yrotation
    JOINT RightLeg
    {
      OFFSET 43.5653 0 0
      CHANNELS 3 Zrotation Xrotation Yrotation
      JOINT RightFoot
      {
        OFFSET 40.6238 0 0
        CHANNELS 3 Zrotation Xrotation Yrotation
        JOINT RightToeBase
        {
          OFFSET 12.7242 0 0
          CHANNELS 3 Zrotation Xrotation Yrotation
          End Site
          {
            OFFSET 0 0 0
          }
        }
      }
    }
  }
  JOINT Spine
  {
    OFFSET 0.165834 0.87714 6.61349
    CHANNELS 3 Zrotation Xrotation Yrotation
    JOINT Spine1
    {
      OFFSET 7.38963 1.71661e-005 0
      CHANNELS 3 Zrotation Xrotation Yrotation
      JOINT Spine2
      {
        OFFSET 11.9445 1.14441e-005 0
        CHANNELS 3 Zrotation Xrotation Yrotation
        JOINT Spine3
        {
          OFFSET 14.7254 4.19617e-005 0
          CHANNELS 3 Zrotation Xrotation Yrotation
          JOINT Spine4
          {
            OFFSET 10.9679 0 0
            CHANNELS 3 Zrotation Xrotation Yrotation
            JOINT RightShoulder
            {
              OFFSET 2.46616 -1.6653 3.69651
              CHANNELS 3 Zrotation Xrotation Yrotation
              JOINT RightArm
              {
                OFFSET 13.0012 0 0
                CHANNELS 3 Zrotation Xrotation Yrotation
                JOINT RightForeArm
                {
                  OFFSET 28.7848 1.52588e-005 0
                  CHANNELS 3 Zrotation Xrotation Yrotation
                  JOINT RightHand
                  {
                    OFFSET 26.5688 1.52588e-005 0
                    CHANNELS 3 Zrotation Xrotation Yrotation
                    End Site
                    {
                      OFFSET 0 0 0
                    }
                  }
                }
              }
            }
            JOINT LeftShoulder
            {
              OFFSET 2.38034 -1.29275 -3.7523
              CHANNELS 3 Zrotation Xrotation Yrotation
              JOINT LeftArm
              {
                OFFSET 16.3182 6.10352e-005 0
                CHANNELS 3 Zrotation Xrotation Yrotation
                JOINT LeftForeArm
                {
                  OFFSET 27.0901 0 0
                  CHANNELS 3 Zrotation Xrotation Yrotation
                  JOINT LeftHand
                  {
                    OFFSET 24.5451 1.52588e-005 0
                    CHANNELS 3 Zrotation Xrotation Yrotation
                    End Site
                    {
                      OFFSET 0 0 0
                    }
                  }
                }
              }
            }
            JOINT Neck
            {
              OFFSET 5.0226 -0.0266342 0
              CHANNELS 3 Zrotation Xrotation Yrotation
              JOINT Head
              {
                OFFSET 6.69364 2.86102e-005 0
                CHANNELS 3 Zrotation Xrotation Yrotation
                End Site
                {
                  OFFSET 0 0 0
                }
              }
            }
          }
        }
      }
    }
  }
}
MOTION
Frames:	14
Frame Time:	0.0416667
45.3554 90.3637 46.9254 86.8953 -32.4168 87.0091 -173.168 -13.9277 91.8051 -22.8538 26.8488 1.48195 51.5025 -4.0598 2.77045 59.4874 39.1197 11.6899 -179.104 35.8993 89.21 -26.5687 7.12307 -0.333262 59.6109 -0.188567 0.0447262 48.006 1.85482 6.19744 -1.6894 7.71477 -90.2325 11.4495 -3.46987 -0.110675 -0.216802 -3.47139 0.0423271 -22.7864 -3.27601 -1.14953 -2.77374 -3.27603 -1.14954 85.9921 -51.0783 -106.604 28.5798 -5.59805 35.3357 -13.0851 -21.2779 -36.5566 7.35171 0.166469 3.82054 -96.4569 -35.1738 63.667 -13.7569 -4.8752 -0.29114 15.6425 3.07551 -69.7703 12.0346 1.07407 4.82782 6.56263 0.171138 -1.70944 7.53841 0.896541 4.14639 
52.1605 89.061 52.4115 88.4399 -35.2386 90.4824 -172.485 -11.3657 94.7779 -34.274 24.695 1.51797 38.9901 -13.842 -5.09719 43.5249 20.6493 20.1506 179.149 37.3409 93.5328 -41.8066 4.36991 0.773177 64.9923 -1.65182 -0.884224 36.5444 0.513479 6.72139 -1.3139 7.77817 -90.6508 11.3062 -2.91775 -1.00533 -0.361784 -2.95915 -0.875851 -22.9141 -2.48072 -1.83612 -2.90142 -2.48069 -1.83612 83.9865 -51.1031 -109.584 26.3904 -5.33912 33.9341 -12.4393 -21.7282 -34.6705 5.65585 0.110612 4.45005 -98.3668 -37.5811 61.5094 -14.2744 -3.40603 2.80147 14.7129 2.41433 -69.4237 10.542 0.837567 3.8165 7.41058 0.390254 0.58198 5.4149 0.554728 3.8079 
57.9157 89.2399 57.7858 90.523 -36.965 91.9051 -173.132 -2.58206 95.3736 -51.6614 20.2362 1.1538 38.5828 -14.3112 -2.4859 37.3715 10.2915 11.2007 178.939 32.8426 95.7225 -46.9281 6.36442 0.32076 71.9566 -3.68128 -1.87898 30.7777 -0.353563 10.8067 -0.892867 7.83368 -90.5455 11.1983 -2.0306 -0.886681 -0.471281 -2.06767 -0.796426 -23.0132 -1.67026 -1.45605 -3.00055 -1.67026 -1.45606 84.2552 -50.9282 -109.242 27.7057 -5.74214 29.2798 -11.8495 -21.7789 -35.9421 4.78008 0.115241 5.39283 -98.4213 -37.9667 61.5903 -18.3963 2.19002 3.01828 13.849 4.31396 -62.387 8.88832 0.638547 3.02767 6.70848 -0.396119 -0.277864 5.47333 -0.0494193 3.66487 
63.6844 91.3643 63.2809 90.5899 -38.0803 91.0886 -173.396 7.57972 93.7529 -58.8474 17.7013 0.329598 45.1682 -9.17754 2.26298 40.5155 14.6583 12.3296 -179.897 25.8247 96.1381 -43.9901 7.14196 -1.25253 73.6569 -3.78516 -1.87325 31.6701 -0.247654 11.2804 -0.553135 7.76475 -90.3678 11.3437 -1.2722 -0.606004 -0.326748 -1.29764 -0.54942 -22.8646 -1.03125 -0.960343 -2.85199 -1.03125 -0.960356 84.2649 -49.7453 -109.617 30.0328 -6.3723 24.7225 -13.0426 -18.1463 -41.779 2.59766 -0.0154239 5.20012 -99.2977 -39.5052 60.8452 -23.5138 6.3181 4.08557 14.1234 8.85569 -54.18 9.49789 0.795019 4.11837 4.64271 -1.16193 0.0122826 7.06187 -0.854997 3.14769 
68.9185 93.8433 68.4014 90.8465 -38.1539 90.5301 -174.086 16.0107 91.9338 -55.8114 15.8853 0.0652757 50.2072 -5.18471 4.24136 43.6648 18.856 12.047 -179.649 16.8689 96.1876 -36.4993 7.45557 -1.69269 74.0386 -3.72346 -1.83812 31.6176 -0.276245 11.842 -0.353164 7.75249 -90.1393 11.3669 -0.767645 -0.19988 -0.303795 -0.775701 -0.165904 -22.8404 -0.67209 -0.421358 -2.82773 -0.672072 -0.421355 83.7789 -50.1791 -110.201 30.3644 -7.7589 20.1813 -13.6003 -13.2893 -49.9432 -1.67315 -0.284911 3.40861 -99.5226 -40.4856 60.9159 -29.0016 9.07676 6.16101 11.5442 12.9579 -44.549 11.6858 1.04878 4.84785 3.63749 -1.70155 -1.07613 6.76852 -1.26023 2.53615 
74.3305 95.8953 73.4544 90.2895 -42.1901 88.4349 -172.95 20.109 89.7298 -42.2198 12.9306 -1.44555 54.441 -1.43451 5.9595 44.9358 20.9057 13.4175 -179.816 8.88255 94.3516 -29.0657 2.96368 -2.47942 72.4258 -3.58916 -1.80203 31.8405 -0.202454 10.8207 0.159023 7.71793 -89.8284 11.4374 0.396599 0.301734 -0.23348 0.409493 0.283967 -22.7687 0.287567 0.406969 -2.75601 0.287563 0.406963 84.1856 -48.7707 -110.065 30.9313 -8.87904 14.3707 -15.8481 -9.7527 -58.1902 -4.20711 -0.417012 2.96768 -100.106 -41.3976 60.3911 -34.7409 9.23471 9.64325 7.31135 13.5163 -35.1782 11.7768 1.03565 4.68569 3.09033 -1.77862 -0.173234 6.8886 -1.60097 1.30155 
79.8423 96.6702 78.0832 88.0872 -45.8561 86.5558 -173.084 22.1266 89.4995 -21.624 7.97028 -1.72245 55.104 -0.61102 5.98583 52.2119 29.9424 11.6681 179.544 3.18965 93.0765 -23.6659 -2.00612 -2.62906 70.2739 -3.31321 -1.70844 34.2235 0.177354 10.5342 0.625637 7.5956 -89.6856 11.6796 1.39197 0.481542 0.00938658 1.41181 0.419797 -22.5296 1.18289 0.877663 -2.51697 1.18289 0.877658 85.1276 -46.2741 -109.462 31.2315 -9.89701 8.14428 -17.716 -7.18829 -66.8936 -5.19049 -0.445847 2.26992 -100.57 -42.1622 60.0003 -39.5308 9.19066 13.9584 4.99684 14.7151 -29.0984 9.93842 0.856523 4.38927 3.48209 -1.72632 1.42751 6.52624 -1.93942 -0.0300702 
85.5086 96.4375 82.2674 86.7058 -49.8054 86.7086 -174.232 23.7067 91.4898 -5.22745 3.1017 -0.381028 58.8452 1.34932 4.85839 48.5099 27.5522 18.3533 178.654 -1.53945 92.6565 -19.9419 -6.23511 -2.5564 67.7111 -2.80621 -1.50751 39.5395 1.04145 11.5167 1.08846 7.60849 -89.7638 11.6561 2.27588 0.233029 -0.0128369 2.28393 0.132582 -22.562 2.10056 0.906539 -2.54936 2.10057 0.906549 86.4696 -42.014 -108.765 31.7047 -10.7525 1.35617 -20.391 -3.95453 -75.7075 -4.98524 -0.4729 3.47252 -100.178 -42.8186 60.893 -43.7361 9.12637 17.9014 4.30735 17.0609 -26.6553 7.09642 0.618508 4.19383 3.92672 -1.82636 4.82015 7.70515 -2.93363 -3.0574 
91.3688 95.079 86.6621 88.3602 -53.5865 88.4631 -174.481 26.6219 93.1116 -4.23798 1.18089 0.377133 61.9287 2.88607 6.55276 48.7708 28.0253 18.5941 178.149 -5.91325 90.7449 -22.8433 -10.9388 -4.28361 67.6397 -3.13809 -1.69991 46.1224 2.01194 10.6035 1.51103 7.76407 -89.6991 11.3446 3.14711 0.284391 -0.322564 3.15659 0.145461 -22.8845 2.91603 1.21786 -2.8719 2.91604 1.21786 87.068 -38.2875 -109.091 32.1527 -10.2062 -3.15384 -22.0549 -2.0664 -82.152 -4.9711 -0.495254 4.11853 -98.1424 -43.0119 64.1453 -46.8103 8.42228 22.0808 4.48669 19.2528 -26.0585 5.58276 0.44348 3.28938 5.22081 -1.55305 5.33108 6.41309 -2.8336 -3.87359 
97.5301 93.334 91.8894 90.5381 -55.1512 88.2532 -173.77 26.1346 91.4468 -7.39757 7.4661 -1.51422 59.0716 3.29285 8.5465 50.8186 30.0698 16.4497 176.812 -8.27908 87.4987 -30.0449 -13.366 -6.66634 66.0751 -2.37184 -1.29927 53.2899 3.15405 10.6267 1.6828 7.87828 -89.3318 11.1048 3.65966 0.975193 -0.561257 3.69902 0.812992 -23.1269 3.19727 2.0309 -3.11421 3.19727 2.03089 86.7752 -37.4371 -109.922 32.5422 -8.15932 -2.57331 -23.4984 1.28355 -86.7465 -2.11608 -0.31208 4.06309 -96.6262 -43.4214 66.6746 -47.4319 7.64643 25.5225 3.61461 19.2569 -24.3902 6.39125 0.442875 2.58261 5.13359 -1.74397 4.50237 5.69871 -2.87707 -4.33513 
104.912 91.9159 97.762 90.1009 -54.887 86.2882 -172.856 27.2922 89.1854 -16.3629 10.4633 -3.0196 54.3353 -2.37212 3.74663 48.4045 24.2477 9.2852 176.031 -8.14665 84.2649 -37.0649 -12.3306 -7.60526 54.8179 1.53424 1.32312 58.6325 5.20156 17.4426 1.68872 7.71667 -89.0188 11.4169 3.8181 1.5673 -0.249173 3.88334 1.39754 -22.8102 3.17056 2.64297 -2.79755 3.17055 2.64296 86.7714 -39.3388 -109.214 32.0502 -8.59714 1.14207 -21.66 1.36892 -87.2437 -4.51408 -0.431655 3.3021 -96.305 -43.666 67.2655 -46.5919 6.63341 27.3592 3.00456 20.7237 -21.4844 5.95776 0.468725 3.29403 3.83367 -2.06237 3.29884 5.70622 -2.98875 -5.03328 
111.698 91.1602 103.4 90.4714 -53.2082 84.2581 -171.759 28.7114 85.5131 -29.5409 12.6913 -4.26556 57.8174 1.31164 9.44144 43.1413 15.064 -5.38248 176.51 -2.80605 82.2647 -49.2231 -5.25332 -7.8765 38.1111 5.6465 5.7845 37.7724 1.8395 14.0446 1.44393 7.68512 -88.7081 11.4668 3.47626 2.22105 -0.201127 3.57062 2.0658 -22.7449 2.64833 3.16304 -2.73228 2.64834 3.16303 85.4186 -42.2628 -110.416 31.1935 -9.33637 6.44575 -21.1554 -0.616201 -82.2249 -6.9408 -0.49848 1.65318 -97.1351 -44.405 66.2393 -44.3089 6.33773 26.2353 2.20867 21.2098 -18.4123 5.07394 0.416786 3.45146 3.60068 -2.11592 2.46791 5.57085 -2.87742 -4.89355 
117.722 91.5731 108.108 92.9137 -51.2132 85.3418 -171.924 24.2947 83.5144 -33.6809 13.5349 -4.56991 61.6756 5.81125 12.3826 39.1658 10.6636 -10.9939 177.886 4.86133 82.5194 -62.5275 5.49226 -7.04306 38.9683 3.55089 3.85909 23.0646 -0.964403 4.54574 1.04402 7.83454 -88.6678 11.171 2.697 2.38777 -0.499102 2.79944 2.26677 -23.0288 1.85508 3.08758 -3.01614 1.85505 3.08757 83.9455 -44.6109 -111.93 31.412 -10.2293 10.631 -20.6571 -5.44349 -72.1486 -6.73671 -0.53681 2.46546 -98.1892 -43.9035 64.4184 -43.1522 6.09143 22.9181 2.35746 18.0991 -18.5916 6.61673 0.563305 3.92572 3.3969 -1.54013 2.22666 6.0148 -2.26934 -4.68172 
124.023 93.5889 112.864 92.2094 -49.1771 86.1631 -173.513 17.9365 83.3365 -30.3538 13.3838 -3.09043 62.2191 6.18967 11.925 39.9264 11.3795 -10.7025 178.783 13.396 85.5582 -66.559 6.6267 -5.885 46.3549 1.60871 1.68385 31.8001 0.0603633 3.45992 0.656759 7.78412 -88.9322 11.2867 1.80425 1.94701 -0.3843 1.8882 1.86572 -22.9125 1.13587 2.39906 -2.89984 1.13588 2.39905 83.296 -46.837 -112.121 32.0422 -10.2238 13.9841 -18.5673 -10.1671 -60.923 -4.58131 -0.450899 2.8229 -98.6 -43.622 63.6715 -40.7058 6.15087 18.9422 3.66521 13.1992 -23.7127 10.5803 0.871591 4.09032 3.71169 -0.756426 2.50665 5.50786 -1.47981 -3.98524 
